<?xml version="1.0" encoding="UTF-8" standalone="no"?>
<!-- Created with Inkscape (http://www.inkscape.org/) -->

<svg
   xmlns:dc="http://purl.org/dc/elements/1.1/"
   xmlns:cc="http://creativecommons.org/ns#"
   xmlns:rdf="http://www.w3.org/1999/02/22-rdf-syntax-ns#"
   xmlns:svg="http://www.w3.org/2000/svg"
   xmlns="http://www.w3.org/2000/svg"
   xmlns:xlink="http://www.w3.org/1999/xlink"
   xmlns:sodipodi="http://sodipodi.sourceforge.net/DTD/sodipodi-0.dtd"
   xmlns:inkscape="http://www.inkscape.org/namespaces/inkscape"
   width="476.77774"
   height="483.20215"
   id="svg4723"
   version="1.1"
   inkscape:version="0.48.0 r9654"
   sodipodi:docname="icon-in-sync.svg">
  <defs
     id="defs4725">
    <linearGradient
       y2="-1685.7142"
       x2="-5639.5049"
       y1="-1501.4286"
       x1="-5886.6479"
       gradientTransform="matrix(1.1352411,0,0,1.1352411,-1407.8545,-6145.5918)"
       gradientUnits="userSpaceOnUse"
       id="linearGradient7362-4-1-2"
       xlink:href="#linearGradient3905-2-2-54-8-6-5-00-3-2-1-5-1"
       inkscape:collect="always" />
    <linearGradient
       id="linearGradient3905-2-2-54-8-6-5-00-3-2-1-5-1">
      <stop
         style="stop-color:#c01a06;stop-opacity:1;"
         offset="0"
         id="stop3907-2-3-4-2-2-4-4-2-7-7-3-9" />
      <stop
         style="stop-color:#eb1b1b;stop-opacity:1;"
         offset="1"
         id="stop3909-4-8-9-7-1-5-6-5-6-6-3-2" />
    </linearGradient>
    <linearGradient
       y2="-1685.7142"
       x2="-5639.5049"
       y1="-1501.4286"
       x1="-5886.6479"
       gradientTransform="matrix(1.1352411,0,0,1.1352411,5893.2314,2050.4151)"
       gradientUnits="userSpaceOnUse"
       id="linearGradient4721"
       xlink:href="#linearGradient3905-2-2-54-8-6-5-00-3-2-1-5-1"
       inkscape:collect="always" />
    <linearGradient
       x1="71.620949"
       y1="67.277466"
       x2="48.645451"
       y2="77.348717"
       id="linearGradient3915"
       xlink:href="#linearGradient3801"
       gradientUnits="userSpaceOnUse" />
    <linearGradient
       id="linearGradient3801">
      <stop
         id="stop3803"
         style="stop-color:#20680f;stop-opacity:1;"
         offset="0" />
      <stop
         id="stop3805"
         style="stop-color:#4ee73a;stop-opacity:1;"
         offset="1" />
    </linearGradient>
    <linearGradient
       x1="68"
       y1="52"
       x2="68"
       y2="84"
       id="linearGradient3948"
       xlink:href="#linearGradient3942"
       gradientUnits="userSpaceOnUse" />
    <linearGradient
       id="linearGradient3942">
      <stop
         id="stop3944"
         style="stop-color:#ffffff;stop-opacity:1"
         offset="0" />
      <stop
         id="stop3946"
         style="stop-color:#ffffff;stop-opacity:0"
         offset="1" />
    </linearGradient>
    <linearGradient
       y2="84"
       x2="68"
       y1="52"
       x1="68"
       gradientUnits="userSpaceOnUse"
       id="linearGradient3100"
       xlink:href="#linearGradient3942"
       inkscape:collect="always" />
  </defs>
  <sodipodi:namedview
     id="base"
     pagecolor="#ffffff"
     bordercolor="#666666"
     borderopacity="1.0"
     inkscape:pageopacity="0.0"
     inkscape:pageshadow="2"
     inkscape:zoom="1.979899"
     inkscape:cx="400.42629"
     inkscape:cy="157.14698"
     inkscape:document-units="px"
     inkscape:current-layer="layer1"
     showgrid="false"
     fit-margin-top="0"
     fit-margin-left="0"
     fit-margin-right="0"
     fit-margin-bottom="0"
     inkscape:window-width="1440"
     inkscape:window-height="851"
     inkscape:window-x="0"
     inkscape:window-y="24"
     inkscape:window-maximized="1" />
  <metadata
     id="metadata4728">
    <rdf:RDF>
      <cc:Work
         rdf:about="">
        <dc:format>image/svg+xml</dc:format>
        <dc:type
           rdf:resource="http://purl.org/dc/dcmitype/StillImage" />
        <dc:title />
      </cc:Work>
    </rdf:RDF>
  </metadata>
  <g
     inkscape:label="Layer 1"
     inkscape:groupmode="layer"
     id="layer1"
     transform="translate(-27.332568,-333.61679)">
    <rect
       style="fill:url(#linearGradient4721);fill-opacity:1;fill-rule:nonzero;stroke:#ffffff;stroke-width:2;stroke-miterlimit:4;stroke-opacity:1;stroke-dasharray:none"
       id="rect4982-3-3-7-2-4-3-4-8-3"
       width="421.92282"
       height="417.76599"
       x="-821.14508"
       y="-43.26461"
       rx="25.690662"
       ry="25.690662"
       transform="matrix(-0.16789514,-0.98580486,0.98580486,-0.16789514,0,0)" />
    <path
       style="font-size:643.40087891px;font-style:normal;font-variant:normal;font-weight:500;font-stretch:normal;text-align:center;line-height:125%;letter-spacing:0px;word-spacing:0px;writing-mode:lr-tb;text-anchor:middle;fill:#ffffff;fill-opacity:1;stroke:none;font-family:Delicious Heavy;-inkscape-font-specification:'Delicious Heavy, Medium'"
       d="m 93.041876,489.20725 c -27.526,-0.7001 -41.5875,3.0374 -53.5436,7.6976 l 13.875,78.5625 c 1.9192,-1.6487 4.1905,-3.2564 6.9062,-4.8437 19.4019,-11.3393 49.297904,-7.6703 78.624994,-2.25 l 21.0313,-68.0938 c -37.66599,-9.334 -39.36799,-10.3724 -66.893894,-11.0726 z m 59.175194,141.1038 c -2.4884,-0.011 -4.7188,0.06 -6.5313,0.1563 -26.19989,0.6689 -45.20709,3.6388 -69.937494,2.2813 -5.3808,-0.065 -9.0706,-0.8888 -11.0312,-0.8438 -0.361,-0.042 -0.9496,-0.087 -1.4063,-0.125 l 13.3242,78.3438 c 5.3116,-0.6953 11.621,-1.3837 18.0195,-1.9063 18.993304,-1.7459 31.919004,-2.716 38.781294,-2.875 18.8093,-1.0884 30.3362,2.9197 34.625,11.9687 7.3519,15.5128 4.4668,38.5893 -16.875,51.0626 -12.47,7.2881 -34.20349,10.4103 -63.164094,9.2227 l 7.6601,39.2226 139.093794,-22.9063 c 20.6727,-31.8782 28.9549,-61.4559 15.1289,-97.3516 -5.3508,-13.3805 -12.3397,-24.4557 -20.9374,-33.1874 -8.21,-8.9584 -16.058,-15.6312 -23.5938,-20.0313 -7.5362,-4.3996 -18.4348,-8.5114 -28.1562,-10.6563 -7.745,-1.7088 -17.5351,-2.3412 -25,-2.375 z"
       id="path4944-7-9-2-8-5-4-5-2-2-6-6"
       inkscape:connector-curvature="0"
       sodipodi:nodetypes="zccccczcccccccccsccccccsc" />
    <g
       style="font-size:387.2449646px;font-style:normal;font-weight:normal;text-align:center;line-height:125%;letter-spacing:0px;word-spacing:0px;text-anchor:middle;fill:#ffffff;fill-opacity:1;stroke:none;font-family:Bitstream Vera Sans"
       id="text3802-9-6-6-5-7-7-9-0-3-7-2-9-4-3-9-6-6-8-8-2-1-1-5-1-9-7"
       transform="matrix(-1.4045478,0.63060015,-0.63060015,-1.4045478,-86.707026,1280.1283)">
      <path
         d="m -500.89541,376.70476 c 4.99999,-23.26016 -15.82636,-2.37207 -7.76349,-23.67111 17.65832,-15.17971 44.30484,-32.45817 70.22352,-33.54553 23.70371,-0.99443 50.14691,16.82765 66.56623,25.19185 7.8395,8.66613 12.91018,9.99939 -1.91915,34.29595 -11.829,-8.19938 -32.85152,-23.94046 -51.71178,-23.10037 -18.23962,0.81245 -45.8685,13.64076 -47.82577,26.69811"
         style="font-size:464.69390869px;font-variant:normal;font-weight:500;font-stretch:normal;writing-mode:lr-tb;fill:#ffffff;font-family:Delicious Heavy;-inkscape-font-specification:'Delicious Heavy, Medium'"
         id="path4120-3-2-7-3-4-6-8-2-7-2-2-4-6-7-8-0-9-8-2-7-9-32-8-0-33-3"
         inkscape:connector-curvature="0"
         sodipodi:nodetypes="ccaccac" />
    </g>
    <path
       style="fill:#ffffff;fill-opacity:1;fill-rule:nonzero;stroke:none"
       d="m 186.03307,507.77615 c 65.075,17.6676 96.6529,27.0917 147.6223,64.5119 23.9579,18.5674 63.1506,43.1143 63.1506,43.1143 2.0909,9.7346 -75.0541,8.7837 -57.6959,39.7266 0,0 -33.0406,-25.6088 -51.1297,-35.9438 -20.3425,-11.6215 -41.9042,-21.2757 -64.0204,-29.0061 -19.4865,-6.8112 -60.0468,-15.1477 -60.0468,-15.1477 z"
       id="rect4365-7-1-2-0-5-3-7-9-9-2-9-3-4-2-0-3-2-7-7"
       inkscape:connector-curvature="0"
       sodipodi:nodetypes="ccccaacc" />
    <path
       style="fill:#ffffff;fill-opacity:1;fill-rule:nonzero;stroke:none"
       d="m 386.39677,532.9882 20.1417,147.4914 c 0.1056,0.7201 -1.0225,1.5498 -2.3069,1.3786 l -138.46,-18.9721 c -1.2874,-0.1764 -3.0078,-0.8888 -2.3782,-1.2518 l 73.6856,-42.5089 c 45.7736,-26.4065 7.0914,-5.9029 7.0914,-5.9029 l 39.8515,-81.4804 c 1.2201,-0.5196 1.7467,0.4032 2.3779,1.2509 z"
       id="rect4978-4-6-4-0-4-2-9-3-8-9-6-1-6-2-3-1-7-5-1-2-2-4-9-4-4-8"
       inkscape:connector-curvature="0"
       sodipodi:nodetypes="csssssccc" />
    <path
       sodipodi:nodetypes="csssssccc"
       inkscape:connector-curvature="0"
       id="path3288-3-6-6-9-2-0-2-6-4-1-1-3-37-0"
       d="m 275.91577,442.06685 134.8677,-63.0097 c 0.6566,-0.3132 1.8138,0.5125 1.9971,1.7984 l 20.5291,143.9356 c 0.1851,1.2861 0.011,3.1709 -0.4892,2.6427 l -59.3797,-62.7807 c -36.3121,-38.3921 -8.3768,-6.0714 -8.3768,-6.0714 l -89.6371,-13.8728 c -0.8581,-1.0107 -0.1326,-1.7879 0.4889,-2.6421 z"
       style="fill:#ffffff;fill-opacity:1;fill-rule:nonzero;stroke:none" />
    <g
       transform="matrix(6.3116166,0,0,6.3116166,-64.336183,242.90017)"
       id="layer4">
      <path
         d="m 89.986349,69.238985 c -0.21488,-1.561093 -1.973583,-1.971086 -3.08095,-2.785965 0.452305,-1.002477 1.307299,-1.880744 1.442147,-2.982622 0.09844,-1.212445 -1.013508,-2.114893 -2.161243,-2.135756 -0.574938,-0.191984 -1.529962,-0.121132 -1.883184,-0.466436 0.105461,-1.303923 0.927598,-2.804937 -0.05258,-3.95302 -0.907896,-1.060888 -2.339545,-0.509432 -3.503632,-0.325674 -0.950635,0.504422 -0.81239,-0.565783 -0.973216,-1.2035 -0.130627,-1.071533 -0.401383,-2.422333 -1.652276,-2.666162 -1.269606,-0.351715 -2.257329,0.785416 -3.345553,1.248885 -0.564682,0.197811 -0.761585,-1.032508 -1.178359,-1.409042 -0.426005,-1.011804 -1.521655,-1.848863 -2.654045,-1.413094 -1.095119,0.436651 -1.63445,1.627605 -2.458205,2.425428 -0.973647,-0.65486 -1.72467,-1.7847 -2.91707,-1.99934 -1.243767,-0.181639 -2.134633,0.905175 -2.372989,2.019516 -0.345055,0.444832 -0.243497,1.842522 -1.003052,1.403006 -1.213096,-0.355405 -2.631658,-1.302577 -3.801916,-0.341572 -1.164288,0.944179 -0.641361,2.603822 -0.785903,3.912444 -1.186176,0.269467 -2.880347,-0.340038 -3.868298,0.741757 -1.026659,1.143887 -0.143349,2.597452 0.237559,3.813095 0.487992,0.76899 -0.891072,0.672735 -1.319748,1.016916 -1.098052,0.268634 -2.195073,1.121664 -2.064313,2.380723 0.249354,1.192288 1.335753,1.97237 1.99934,2.949845 -0.871859,0.915157 -2.269562,1.493314 -2.556533,2.818742 -0.186067,1.142981 0.709312,1.986005 1.663193,2.403037 0.374257,0.418594 1.762649,0.565214 1.196802,1.235928 -0.585967,1.153839 -1.765734,2.450576 -0.926208,3.768425 0.810341,1.207354 2.476744,0.956157 3.736472,1.311043 -0.08576,1.227497 -0.781478,2.521328 -0.229433,3.703695 0.526899,1.071756 1.844115,1.213477 2.87647,0.879241 0.560732,0.07218 1.729076,-0.722239 1.724808,0.155757 0.28962,1.207178 0.140911,2.908592 1.527846,3.422546 1.38487,0.596205 2.576146,-0.697698 3.773565,-1.225564 0.454783,0.276534 0.742145,1.177337 1.132089,1.695641 0.455828,1.285443 2.259105,1.820804 3.255585,0.80819 0.610876,-0.645848 1.17573,-1.360459 1.769908,-2.032116 1.070537,0.696774 1.92142,2.036743 3.310382,1.999339 1.284689,-0.0939 1.81764,-1.335721 2.151522,-2.404812 0.206115,-0.763429 0.45194,-1.441171 1.291319,-0.838121 1.079697,0.400421 2.40691,1.016712 3.407356,0.09643 1.036768,-1.007403 0.54752,-2.574581 0.688297,-3.867575 1.24572,-0.135375 2.670869,0.29881 3.736472,-0.524417 0.936001,-0.804307 0.694064,-2.129136 0.219537,-3.122161 -0.129526,-0.619425 -0.912001,-1.544893 0.15361,-1.604149 1.111548,-0.448238 2.718145,-0.69704 2.904459,-2.123887 0.293747,-1.438242 -1.158981,-2.317711 -1.863365,-3.381883 -0.0012,-0.497479 0.978512,-0.910082 1.354831,-1.374896 0.68176,-0.486375 1.154931,-1.160958 1.098503,-2.027866 z"
         inkscape:connector-curvature="0"
         id="path3960"
         style="opacity:0.1;color:#000000;fill:#000000;fill-opacity:1;fill-rule:nonzero;stroke:none;stroke-width:2;marker:none;visibility:visible;display:inline;overflow:visible;enable-background:accumulate" />
      <path
         inkscape:connector-curvature="0"
         d="m 60.9375,54.59375 a 0.86264402,0.86264402 0 0 0 -0.71875,0.4375 L 58.5,57.875 55.625,56.25 a 0.86264402,0.86264402 0 0 0 -1.28125,0.59375 l -0.625,3.3125 -3.28125,-0.5625 a 0.86264402,0.86264402 0 0 0 -1,1 L 50,63.875 46.6875,64.5 a 0.86264402,0.86264402 0 0 0 -0.59375,1.28125 l 1.625,2.875 L 44.875,70.375 A 0.86264402,0.86264402 0 0 0 44.75,71.78125 L 47.25,73.9375 45.15625,76.5 A 0.86264402,0.86264402 0 0 0 45.5,77.875 l 3.15625,1.1875 -1.125,3.15625 a 0.86264402,0.86264402 0 0 0 0.8125,1.15625 l 3.3125,0.03125 0.0625,3.3125 a 0.86264402,0.86264402 0 0 0 1.15625,0.8125 L 56,86.4375 l 1.1875,3.125 a 0.86264402,0.86264402 0 0 0 1.34375,0.34375 l 2.59375,-2.125 2.1875,2.5625 a 0.86264402,0.86264402 0 0 0 1.40625,-0.125 l 1.6875,-2.875 2.9375,1.625 a 0.86264402,0.86264402 0 0 0 1.25,-0.59375 l 0.59375,-3.28125 3.3125,0.5625 a 0.86264402,0.86264402 0 0 0 1,-1 L 74.9375,81.34375 78.21875,80.75 A 0.86264402,0.86264402 0 0 0 78.8125,79.5 l -1.625,-2.9375 2.875,-1.6875 a 0.86264402,0.86264402 0 0 0 0.125,-1.40625 L 77.625,71.28125 79.75,68.6875 a 0.86264402,0.86264402 0 0 0 -0.34375,-1.34375 l -3.125,-1.1875 1.09375,-3.125 A 0.86264402,0.86264402 0 0 0 76.5625,61.875 L 73.25,61.8125 73.21875,58.5 A 0.86264402,0.86264402 0 0 0 72.0625,57.6875 l -3.15625,1.125 -1.1875,-3.15625 a 0.86264402,0.86264402 0 0 0 -1.375,-0.34375 l -2.5625,2.09375 -2.15625,-2.5 a 0.86264402,0.86264402 0 0 0 -0.6875,-0.3125 z"
         transform="matrix(0,1.048834,-1.048834,0,146.16452,5.4895435)"
         id="path3956"
         style="opacity:0.15;color:#000000;fill:#000000;fill-opacity:1;fill-rule:nonzero;stroke:none;stroke-width:2;marker:none;visibility:visible;display:inline;overflow:visible;enable-background:accumulate" />
      <path
         inkscape:connector-curvature="0"
         d="m 74.641931,84.79994 -4.128425,-0.680449 -0.772592,4.112178 -3.646724,-2.051417 -2.132447,3.599941 -2.725174,-3.174954 -3.235096,2.653498 -1.474928,-3.915545 -3.947546,1.387004 -0.04678,-4.183864 -4.183864,-0.04678 1.387005,-3.947547 -3.915546,-1.474927 2.653499,-3.235097 -3.174955,-2.725173 3.599941,-2.132447 -2.051417,-3.646724 4.112178,-0.772592 -0.680448,-4.128426 4.128425,0.680449 0.772592,-4.112178 3.646724,2.051417 2.132447,-3.599941 2.725173,3.174954 3.235097,-2.653498 1.474927,3.915545 3.947547,-1.387004 0.04678,4.183864 4.183863,0.04678 -1.387004,3.947547 3.915545,1.474927 -2.653498,3.235097 3.174955,2.725173 -3.599942,2.132447 2.051418,3.646724 -4.112178,0.772592 z"
         transform="matrix(0,1.048834,-1.048834,0,146.16452,5.4895435)"
         id="path3950"
         style="opacity:0.3;color:#000000;fill:#000000;fill-opacity:1;fill-rule:nonzero;stroke:none;stroke-width:2;marker:none;visibility:visible;display:inline;overflow:visible;enable-background:accumulate" />
      <path
         inkscape:connector-curvature="0"
         d="m 74.641931,84.79994 -4.128425,-0.680449 -0.772592,4.112178 -3.646724,-2.051417 -2.132447,3.599941 -2.725174,-3.174954 -3.235096,2.653498 -1.474928,-3.915545 -3.947546,1.387004 -0.04678,-4.183864 -4.183864,-0.04678 1.387005,-3.947547 -3.915546,-1.474927 2.653499,-3.235097 -3.174955,-2.725173 3.599941,-2.132447 -2.051417,-3.646724 4.112178,-0.772592 -0.680448,-4.128426 4.128425,0.680449 0.772592,-4.112178 3.646724,2.051417 2.132447,-3.599941 2.725173,3.174954 3.235097,-2.653498 1.474927,3.915545 3.947547,-1.387004 0.04678,4.183864 4.183863,0.04678 -1.387004,3.947547 3.915545,1.474927 -2.653498,3.235097 3.174955,2.725173 -3.599942,2.132447 2.051418,3.646724 -4.112178,0.772592 z"
         transform="matrix(0,1.048834,-1.048834,0,146.16452,4.4895435)"
         id="path3139"
         style="color:#000000;fill:url(#linearGradient3915);fill-opacity:1;fill-rule:nonzero;stroke:none;stroke-width:2;marker:none;visibility:visible;display:inline;overflow:visible;enable-background:accumulate" />
      <path
         d="m 60,72 4,-4 4,4 8,-8 4,4 -12,12 -8,-8 z"
         inkscape:connector-curvature="0"
         id="path3919"
         style="opacity:0;fill:#000000;stroke:none;display:inline" />
      <path
         d="m 75.875,62 c -0.897869,0.0099 -1.438132,0.775583 -2.032335,1.344835 C 71.89511,65.29239 69.947555,67.239945 68,69.1875 c -0.964382,-0.939158 -1.868773,-1.970041 -2.875,-2.84375 -0.879623,-0.663028 -2.130727,-0.326947 -2.783407,0.470907 -1.284146,1.304182 -2.625329,2.584738 -3.872843,3.904093 -0.783383,0.836692 -0.536644,2.211406 0.302071,2.89513 2.649229,2.639204 5.299107,5.277758 7.947929,7.91737 0.836978,0.783668 2.210868,0.536107 2.895476,-0.301726 C 73.544901,77.298849 77.475575,73.368175 81.40625,69.4375 82.240045,68.656851 82.202094,67.170154 81.273706,66.461206 79.934643,65.122783 78.575876,63.762503 77.25,62.4375 76.861442,62.132871 76.36048,62.000022 75.875,62 z"
         inkscape:connector-curvature="0"
         id="path3929"
         style="opacity:0.07999998;fill:#000000;stroke:none;display:inline" />
      <path
         inkscape:connector-curvature="0"
         d="m 75.90625,63.09375 a 0.90850139,0.90850139 0 0 0 -0.5625,0.25 L 68,70.6875 64.65625,67.34375 a 0.90850139,0.90850139 0 0 0 -1.3125,0 l -4,4 a 0.90850139,0.90850139 0 0 0 0,1.3125 l 8,8 a 0.90850139,0.90850139 0 0 0 1.3125,0 l 12,-12 a 0.90850139,0.90850139 0 0 0 0,-1.3125 l -4,-4 a 0.90850139,0.90850139 0 0 0 -0.75,-0.25 z"
         id="path3925"
         style="opacity:0.12000002;fill:#000000;stroke:none;display:inline" />
      <path
         d="m 60,72 4,-4 4,4 8,-8 4,4 -12,12 -8,-8 z"
         inkscape:connector-curvature="0"
         id="path3921"
         style="opacity:0.3;fill:#000000;stroke:none;display:inline" />
      <path
         d="m 60,71 4,-4 4,4 8,-8 4,4 -12,12 -8,-8 z"
         inkscape:connector-curvature="0"
         id="path3917"
         style="fill:#ffffff;stroke:none;display:inline" />
      <path
         d="M 71.5625,52 68.71875,55.34375 65.3125,52.5625 63.78125,56.65625 59.625,55.1875 l 0,1 4.15625,1.46875 1.53125,-4.09375 3.40625,2.78125 L 71.5625,53 73.8125,56.78125 77.625,54.625 78.4375,58.9375 82.625,58.25 82.78125,57.21875 78.4375,57.9375 77.625,53.625 73.8125,55.78125 71.5625,52 z m -11.96875,7.59375 -4.40625,0.03125 0.34375,1 4.0625,-0.03125 0,-1 z m 22.625,2 -0.15625,0.96875 3.8125,0.71875 0.5,-0.90625 -4.15625,-0.78125 z m -25.875,2.3125 -3.78125,1.40625 0.625,0.78125 3.46875,-1.3125 -0.3125,-0.875 z m 28.3125,2.53125 -0.4375,0.75 3.09375,1.84375 L 88,68.4375 l -3.34375,-2 z M 54.875,69.125 52,71.5625 l 0.6875,0.40625 2.65625,-2.25 L 54.875,69.125 z m 30.25,2.75 -0.46875,0.40625 2.15625,2.625 0.625,-0.21875 -2.3125,-2.8125 z m -29.78125,2.6875 -1.71875,3.0625 0.5,0.09375 1.65625,-2.90625 -0.4375,-0.25 z m 28.3125,2.53125 -0.3125,0.125 1.125,3.15625 0.34375,0 -1.15625,-3.28125 z m -25.875,2.3125 -0.5625,3.375 L 57.375,82.75 57.9375,79.4375 57.78125,79.40625 z"
         inkscape:connector-curvature="0"
         id="path3933"
         style="opacity:0.6;color:#000000;fill:url(#linearGradient3100);fill-opacity:1;fill-rule:nonzero;stroke:none;stroke-width:2;marker:none;visibility:visible;display:inline;overflow:visible;enable-background:accumulate" />
    </g>
  </g>
</svg>
