<?xml version="1.0" encoding="UTF-8" standalone="no"?>
<!-- Created with Inkscape (http://www.inkscape.org/) -->

<svg
   xmlns:dc="http://purl.org/dc/elements/1.1/"
   xmlns:cc="http://creativecommons.org/ns#"
   xmlns:rdf="http://www.w3.org/1999/02/22-rdf-syntax-ns#"
   xmlns:svg="http://www.w3.org/2000/svg"
   xmlns="http://www.w3.org/2000/svg"
   xmlns:xlink="http://www.w3.org/1999/xlink"
   xmlns:sodipodi="http://sodipodi.sourceforge.net/DTD/sodipodi-0.dtd"
   xmlns:inkscape="http://www.inkscape.org/namespaces/inkscape"
   width="476.77774"
   height="483.20215"
   id="svg4723"
   version="1.1"
   inkscape:version="0.48.0 r9654"
   sodipodi:docname="icon-syncing.svg"
   inkscape:export-filename="/home/pheckel/Coding/syncany/syncany/sfx/icon-syncing48-1.png"
   inkscape:export-xdpi="8.9352751"
   inkscape:export-ydpi="8.9352751">
  <defs
     id="defs4725">
    <linearGradient
       y2="-1685.7142"
       x2="-5639.5049"
       y1="-1501.4286"
       x1="-5886.6479"
       gradientTransform="matrix(1.1352411,0,0,1.1352411,-1407.8545,-6145.5918)"
       gradientUnits="userSpaceOnUse"
       id="linearGradient7362-4-1-2"
       xlink:href="#linearGradient3905-2-2-54-8-6-5-00-3-2-1-5-1"
       inkscape:collect="always" />
    <linearGradient
       id="linearGradient3905-2-2-54-8-6-5-00-3-2-1-5-1">
      <stop
         style="stop-color:#c01a06;stop-opacity:1;"
         offset="0"
         id="stop3907-2-3-4-2-2-4-4-2-7-7-3-9" />
      <stop
         style="stop-color:#eb1b1b;stop-opacity:1;"
         offset="1"
         id="stop3909-4-8-9-7-1-5-6-5-6-6-3-2" />
    </linearGradient>
    <linearGradient
       y2="-1685.7142"
       x2="-5639.5049"
       y1="-1501.4286"
       x1="-5886.6479"
       gradientTransform="matrix(1.1352411,0,0,1.1352411,5893.2314,2050.4151)"
       gradientUnits="userSpaceOnUse"
       id="linearGradient4721"
       xlink:href="#linearGradient3905-2-2-54-8-6-5-00-3-2-1-5-1"
       inkscape:collect="always" />
    <linearGradient
       x1="71.620949"
       y1="67.277466"
       x2="48.645451"
       y2="77.348717"
       id="linearGradient3915"
       xlink:href="#linearGradient3801"
       gradientUnits="userSpaceOnUse" />
    <linearGradient
       id="linearGradient3801">
      <stop
         id="stop3803"
         style="stop-color:#3519b0;stop-opacity:1;"
         offset="0" />
      <stop
         id="stop3805"
         style="stop-color:#3a91e7;stop-opacity:1;"
         offset="1" />
    </linearGradient>
    <linearGradient
       x1="68"
       y1="52"
       x2="68"
       y2="84"
       id="linearGradient3948"
       xlink:href="#linearGradient3942"
       gradientUnits="userSpaceOnUse" />
    <linearGradient
       id="linearGradient3942">
      <stop
         id="stop3944"
         style="stop-color:#ffffff;stop-opacity:1"
         offset="0" />
      <stop
         id="stop3946"
         style="stop-color:#ffffff;stop-opacity:0"
         offset="1" />
    </linearGradient>
    <linearGradient
       y2="84"
       x2="68"
       y1="52"
       x1="68"
       gradientUnits="userSpaceOnUse"
       id="linearGradient3100"
       xlink:href="#linearGradient3942"
       inkscape:collect="always" />
    <linearGradient
       id="linearGradient3637">
      <stop
         id="stop3639"
         style="stop-color:#f0f0f0;stop-opacity:1"
         offset="0" />
      <stop
         id="stop3641"
         style="stop-color:#aaaaaa;stop-opacity:1"
         offset="1" />
    </linearGradient>
    <linearGradient
       x1="71.620949"
       y1="67.277466"
       x2="48.645451"
       y2="77.348717"
       id="linearGradient3915-1"
       xlink:href="#linearGradient3801-6"
       gradientUnits="userSpaceOnUse" />
    <linearGradient
       id="linearGradient3801-6">
      <stop
         id="stop3803-4"
         style="stop-color:#20680f;stop-opacity:1;"
         offset="0" />
      <stop
         id="stop3805-1"
         style="stop-color:#4ee73a;stop-opacity:1;"
         offset="1" />
    </linearGradient>
    <linearGradient
       y2="84"
       x2="68"
       y1="52"
       x1="68"
       gradientUnits="userSpaceOnUse"
       id="linearGradient3100-4"
       xlink:href="#linearGradient3942-9"
       inkscape:collect="always" />
    <linearGradient
       id="linearGradient3942-9">
      <stop
         id="stop3944-8"
         style="stop-color:#ffffff;stop-opacity:1"
         offset="0" />
      <stop
         id="stop3946-6"
         style="stop-color:#ffffff;stop-opacity:0"
         offset="1" />
    </linearGradient>
    <linearGradient
       inkscape:collect="always"
       xlink:href="#linearGradient3942"
       id="linearGradient3964"
       gradientUnits="userSpaceOnUse"
       x1="68"
       y1="52"
       x2="68"
       y2="84"
       gradientTransform="matrix(6.3116166,0,0,6.3116166,-64.336183,242.90017)" />
    <linearGradient
       inkscape:collect="always"
       xlink:href="#linearGradient3801"
       id="linearGradient3972"
       gradientUnits="userSpaceOnUse"
       x1="71.620949"
       y1="67.277466"
       x2="48.645451"
       y2="77.348717"
       gradientTransform="matrix(0,6.6198381,-6.6198381,0,858.19823,271.23645)" />
  </defs>
  <sodipodi:namedview
     id="base"
     pagecolor="#ffffff"
     bordercolor="#666666"
     borderopacity="1.0"
     inkscape:pageopacity="0.0"
     inkscape:pageshadow="2"
     inkscape:zoom="1"
     inkscape:cx="201.10718"
     inkscape:cy="42.409286"
     inkscape:document-units="px"
     inkscape:current-layer="layer1"
     showgrid="false"
     fit-margin-top="0"
     fit-margin-left="0"
     fit-margin-right="0"
     fit-margin-bottom="0"
     inkscape:window-width="1440"
     inkscape:window-height="851"
     inkscape:window-x="0"
     inkscape:window-y="24"
     inkscape:window-maximized="1" />
  <metadata
     id="metadata4728">
    <rdf:RDF>
      <cc:Work
         rdf:about="">
        <dc:format>image/svg+xml</dc:format>
        <dc:type
           rdf:resource="http://purl.org/dc/dcmitype/StillImage" />
        <dc:title></dc:title>
      </cc:Work>
    </rdf:RDF>
  </metadata>
  <g
     inkscape:label="Layer 1"
     inkscape:groupmode="layer"
     id="layer1"
     transform="translate(-27.332568,-333.61679)">
    <rect
       style="fill:url(#linearGradient4721);fill-opacity:1;fill-rule:nonzero;stroke:#ffffff;stroke-width:2;stroke-miterlimit:4;stroke-opacity:1;stroke-dasharray:none"
       id="rect4982-3-3-7-2-4-3-4-8-3"
       width="421.92282"
       height="417.76599"
       x="-821.14508"
       y="-43.26461"
       rx="25.690662"
       ry="25.690662"
       transform="matrix(-0.16789514,-0.98580486,0.98580486,-0.16789514,0,0)" />
    <path
       style="font-size:643.40087891px;font-style:normal;font-variant:normal;font-weight:500;font-stretch:normal;text-align:center;line-height:125%;letter-spacing:0px;word-spacing:0px;writing-mode:lr-tb;text-anchor:middle;fill:#ffffff;fill-opacity:1;stroke:none;font-family:Delicious Heavy;-inkscape-font-specification:'Delicious Heavy, Medium'"
       d="m 93.041876,489.20725 c -27.526,-0.7001 -41.5875,3.0374 -53.5436,7.6976 l 13.875,78.5625 c 1.9192,-1.6487 4.1905,-3.2564 6.9062,-4.8437 19.4019,-11.3393 49.297904,-7.6703 78.624994,-2.25 l 21.0313,-68.0938 c -37.66599,-9.334 -39.36799,-10.3724 -66.893894,-11.0726 z m 59.175194,141.1038 c -2.4884,-0.011 -4.7188,0.06 -6.5313,0.1563 -26.19989,0.6689 -45.20709,3.6388 -69.937494,2.2813 -5.3808,-0.065 -9.0706,-0.8888 -11.0312,-0.8438 -0.361,-0.042 -0.9496,-0.087 -1.4063,-0.125 l 13.3242,78.3438 c 5.3116,-0.6953 11.621,-1.3837 18.0195,-1.9063 18.993304,-1.7459 31.919004,-2.716 38.781294,-2.875 18.8093,-1.0884 30.3362,2.9197 34.625,11.9687 7.3519,15.5128 4.4668,38.5893 -16.875,51.0626 -12.47,7.2881 -34.20349,10.4103 -63.164094,9.2227 l 7.6601,39.2226 139.093794,-22.9063 c 20.6727,-31.8782 28.9549,-61.4559 15.1289,-97.3516 -5.3508,-13.3805 -12.3397,-24.4557 -20.9374,-33.1874 -8.21,-8.9584 -16.058,-15.6312 -23.5938,-20.0313 -7.5362,-4.3996 -18.4348,-8.5114 -28.1562,-10.6563 -7.745,-1.7088 -17.5351,-2.3412 -25,-2.375 z"
       id="path4944-7-9-2-8-5-4-5-2-2-6-6"
       inkscape:connector-curvature="0"
       sodipodi:nodetypes="zccccczcccccccccsccccccsc" />
    <g
       style="font-size:387.2449646px;font-style:normal;font-weight:normal;text-align:center;line-height:125%;letter-spacing:0px;word-spacing:0px;text-anchor:middle;fill:#ffffff;fill-opacity:1;stroke:none;font-family:Bitstream Vera Sans"
       id="text3802-9-6-6-5-7-7-9-0-3-7-2-9-4-3-9-6-6-8-8-2-1-1-5-1-9-7"
       transform="matrix(-1.4045478,0.63060015,-0.63060015,-1.4045478,-86.707026,1280.1283)">
      <path
         d="m -500.89541,376.70476 c 4.99999,-23.26016 -15.82636,-2.37207 -7.76349,-23.67111 17.65832,-15.17971 44.30484,-32.45817 70.22352,-33.54553 23.70371,-0.99443 50.14691,16.82765 66.56623,25.19185 7.8395,8.66613 12.91018,9.99939 -1.91915,34.29595 -11.829,-8.19938 -32.85152,-23.94046 -51.71178,-23.10037 -18.23962,0.81245 -45.8685,13.64076 -47.82577,26.69811"
         style="font-size:464.69390869px;font-variant:normal;font-weight:500;font-stretch:normal;writing-mode:lr-tb;fill:#ffffff;font-family:Delicious Heavy;-inkscape-font-specification:'Delicious Heavy, Medium'"
         id="path4120-3-2-7-3-4-6-8-2-7-2-2-4-6-7-8-0-9-8-2-7-9-32-8-0-33-3"
         inkscape:connector-curvature="0"
         sodipodi:nodetypes="ccaccac" />
    </g>
    <path
       style="fill:#ffffff;fill-opacity:1;fill-rule:nonzero;stroke:none"
       d="m 186.03307,507.77615 c 65.075,17.6676 96.6529,27.0917 147.6223,64.5119 23.9579,18.5674 63.1506,43.1143 63.1506,43.1143 2.0909,9.7346 -75.0541,8.7837 -57.6959,39.7266 0,0 -33.0406,-25.6088 -51.1297,-35.9438 -20.3425,-11.6215 -41.9042,-21.2757 -64.0204,-29.0061 -19.4865,-6.8112 -60.0468,-15.1477 -60.0468,-15.1477 z"
       id="rect4365-7-1-2-0-5-3-7-9-9-2-9-3-4-2-0-3-2-7-7"
       inkscape:connector-curvature="0"
       sodipodi:nodetypes="ccccaacc" />
    <path
       style="fill:#ffffff;fill-opacity:1;fill-rule:nonzero;stroke:none"
       d="m 386.39677,532.9882 20.1417,147.4914 c 0.1056,0.7201 -1.0225,1.5498 -2.3069,1.3786 l -138.46,-18.9721 c -1.2874,-0.1764 -3.0078,-0.8888 -2.3782,-1.2518 l 73.6856,-42.5089 c 45.7736,-26.4065 7.0914,-5.9029 7.0914,-5.9029 l 39.8515,-81.4804 c 1.2201,-0.5196 1.7467,0.4032 2.3779,1.2509 z"
       id="rect4978-4-6-4-0-4-2-9-3-8-9-6-1-6-2-3-1-7-5-1-2-2-4-9-4-4-8"
       inkscape:connector-curvature="0"
       sodipodi:nodetypes="csssssccc" />
    <path
       sodipodi:nodetypes="csssssccc"
       inkscape:connector-curvature="0"
       id="path3288-3-6-6-9-2-0-2-6-4-1-1-3-37-0"
       d="m 275.91577,442.06685 134.8677,-63.0097 c 0.6566,-0.3132 1.8138,0.5125 1.9971,1.7984 l 20.5291,143.9356 c 0.1851,1.2861 0.011,3.1709 -0.4892,2.6427 l -59.3797,-62.7807 c -36.3121,-38.3921 -8.3768,-6.0714 -8.3768,-6.0714 l -89.6371,-13.8728 c -0.8581,-1.0107 -0.1326,-1.7879 0.4889,-2.6421 z"
       style="fill:#ffffff;fill-opacity:1;fill-rule:nonzero;stroke:none" />
    <g
       id="g4024">
      <path
         d="m 503.62315,679.9101 c -1.35624,-9.85302 -12.4565,-12.44074 -19.44577,-17.58395 2.85477,-6.32725 8.25117,-11.87053 9.10227,-18.82516 0.62132,-7.65249 -6.39687,-13.3484 -13.64093,-13.48008 -3.62879,-1.21172 -9.65654,-0.76453 -11.88594,-2.94396 0.66563,-8.22986 5.85465,-17.70369 -0.33186,-24.94995 -5.73029,-6.69592 -14.76631,-3.21534 -22.11358,-2.05553 -6.00005,3.18372 -5.1275,-3.571 -6.14257,-7.59603 -0.82447,-6.7631 -2.53338,-15.28883 -10.42853,-16.82779 -8.01327,-2.21989 -14.2474,4.95725 -21.11585,7.88248 -3.56406,1.24851 -4.80683,-6.51679 -7.43735,-8.89333 -2.68878,-6.38612 -9.6041,-11.66931 -16.75132,-8.91891 -6.91197,2.75598 -10.31602,10.27282 -15.51524,15.30837 -6.14529,-4.13322 -10.88546,-11.26434 -18.41143,-12.61906 -7.85018,-1.14644 -13.47299,5.71311 -14.9774,12.74641 -2.17785,2.80761 -1.53686,11.62929 -6.33088,8.85523 -7.65659,-2.24318 -16.61001,-8.22136 -23.99623,-2.15587 -7.34854,5.9593 -4.04803,16.43433 -4.96032,24.69385 -7.48669,1.70077 -18.17965,-2.14619 -24.41522,4.68168 -6.47987,7.21978 -0.90476,16.39413 1.49939,24.0668 3.08001,4.85357 -5.62411,4.24604 -8.32975,6.41838 -6.93048,1.69552 -13.85446,7.07952 -13.02915,15.02621 1.57383,7.52527 8.43076,12.44885 12.61907,18.61829 -5.50284,5.77612 -14.32461,9.42523 -16.13586,17.79082 -1.17438,7.21406 4.47691,12.5349 10.49744,15.16705 2.36216,2.64201 11.12516,3.56741 7.55375,7.8007 -3.6984,7.28259 -11.14463,15.4671 -5.84587,23.78486 5.11457,7.62035 15.63226,6.03489 23.58318,8.2748 -0.54128,7.74749 -4.93239,15.91365 -1.44809,23.3763 3.32558,6.76451 11.63935,7.659 18.15518,5.54943 3.53912,0.45558 10.91326,-4.55849 10.88632,0.98308 1.82797,7.61925 0.88938,18.35792 9.64318,21.6018 8.74077,3.76302 16.25965,-4.4036 23.8173,-7.73529 2.87041,1.74538 4.68413,7.4309 7.14531,10.70224 2.87701,8.11322 14.2586,11.49221 20.548,5.10098 3.85562,-4.07634 7.42076,-8.58669 11.17098,-12.82594 6.75682,4.39778 12.12727,12.85515 20.89386,12.61907 8.10847,-0.59266 11.47225,-8.43056 13.57959,-15.17826 1.30092,-4.81847 2.85247,-9.09611 8.15031,-5.28989 6.81463,2.5273 15.19149,6.41709 21.50592,0.60863 6.54368,-6.35835 3.45574,-16.24977 4.34427,-24.41066 7.86251,-0.85443 16.8575,1.88598 23.58318,-3.30991 5.90768,-5.07648 4.38066,-13.43829 1.38563,-19.70589 -0.81752,-3.90957 -5.7562,-9.75077 0.96953,-10.12477 7.01566,-2.82911 17.15589,-4.39945 18.33183,-13.40516 1.85402,-9.07763 -7.31504,-14.6285 -11.76085,-21.34515 -0.008,-3.1399 6.176,-5.74409 8.55118,-8.67782 4.30301,-3.06981 7.28948,-7.32752 6.93333,-12.79911 z"
         inkscape:connector-curvature="0"
         id="path3960"
         style="opacity:0.1;color:#000000;fill:#000000;fill-opacity:1;fill-rule:nonzero;stroke:none;stroke-width:2;marker:none;visibility:visible;display:inline;overflow:visible;enable-background:accumulate" />
      <path
         inkscape:connector-curvature="0"
         d="m 496.79644,680.94444 a 5.7105638,5.7105638 0 0 0 -2.89618,-4.758 l -18.82516,-11.37785 10.75724,-19.03204 a 5.7105638,5.7105638 0 0 0 -3.93053,-8.48166 l -21.92822,-4.1374 3.72366,-21.72135 a 5.7105638,5.7105638 0 0 0 -6.61983,-6.61983 l -21.72135,3.72365 -4.1374,-21.92821 a 5.7105638,5.7105638 0 0 0 -8.48167,-3.93053 l -19.03203,10.75724 -11.37785,-18.82517 a 5.7105638,5.7105638 0 0 0 -9.30914,-0.82748 l -14.27403,16.5496 -16.96333,-13.86029 a 5.7105638,5.7105638 0 0 0 -9.10228,2.27557 l -7.86106,20.89387 -20.89386,-7.44732 a 5.7105638,5.7105638 0 0 0 -7.65419,5.37862 l -0.20687,21.92821 -21.92822,0.41374 a 5.7105638,5.7105638 0 0 0 -5.37861,7.65419 l 7.24044,20.68699 -20.68699,7.86106 a 5.7105638,5.7105638 0 0 0 -2.27557,8.89541 l 14.06716,17.1702 -16.96334,14.4809 a 5.7105638,5.7105638 0 0 0 0.82748,9.30915 l 19.03204,11.17097 -10.75724,19.44578 a 5.7105638,5.7105638 0 0 0 3.93053,8.2748 l 21.72134,3.93052 -3.72366,21.92822 a 5.7105638,5.7105638 0 0 0 6.61984,6.61984 l 21.92821,-3.72366 3.93053,21.72134 a 5.7105638,5.7105638 0 0 0 8.2748,3.93053 l 19.44578,-10.75724 11.17097,19.03204 a 5.7105638,5.7105638 0 0 0 9.30915,0.82748 l 14.4809,-16.96334 17.1702,14.06716 a 5.7105638,5.7105638 0 0 0 8.89541,-2.27557 l 7.86106,-20.68699 20.68699,7.24044 a 5.7105638,5.7105638 0 0 0 7.65419,-5.37862 l 0.41374,-21.92821 21.92821,-0.20687 a 5.7105638,5.7105638 0 0 0 5.37862,-7.65419 l -7.44732,-20.89386 20.89387,-7.86106 a 5.7105638,5.7105638 0 0 0 2.27557,-9.10228 l -13.86029,-16.96333 16.54959,-14.27403 a 5.7105638,5.7105638 0 0 0 2.0687,-4.55114 z"
         id="path3956"
         style="opacity:0.15;color:#000000;fill:#000000;fill-opacity:1;fill-rule:nonzero;stroke:none;stroke-width:2;marker:none;visibility:visible;display:inline;overflow:visible;enable-background:accumulate" />
      <path
         inkscape:connector-curvature="0"
         d="m 296.83636,771.66556 4.50446,-27.32951 -27.22195,-5.11443 13.58004,-24.14072 -23.83102,-14.11646 21.01768,-18.04021 -17.56573,-21.41581 25.92028,-9.76378 -9.18175,-26.13212 27.69651,-0.30968 0.30967,-27.6965 26.13212,9.18175 9.76378,-25.92028 21.41582,17.56573 18.0402,-21.01768 14.11646,23.83102 24.14072,-13.58005 5.11444,27.22196 27.32951,-4.50446 -4.50447,27.32951 27.22196,5.11443 -13.58005,24.14072 23.83103,14.11646 -21.01769,18.0402 17.56573,21.41582 -25.92027,9.76378 9.18174,26.13212 -27.6965,0.30968 -0.30968,27.69649 -26.13212,-9.18174 -9.76378,25.92027 -21.41582,-17.56572 -18.0402,21.01768 -14.11646,-23.83103 -24.14072,13.58006 -5.11443,-27.22196 z"
         id="path3950"
         style="opacity:0.3;color:#000000;fill:#000000;fill-opacity:1;fill-rule:nonzero;stroke:none;stroke-width:2;marker:none;visibility:visible;display:inline;overflow:visible;enable-background:accumulate" />
      <path
         inkscape:connector-curvature="0"
         d="m 296.83636,765.35395 4.50446,-27.32951 -27.22195,-5.11443 13.58004,-24.14072 -23.83102,-14.11646 21.01768,-18.04021 -17.56573,-21.41581 25.92028,-9.76378 -9.18175,-26.13212 27.69651,-0.30968 0.30967,-27.6965 26.13212,9.18175 9.76378,-25.92028 21.41582,17.56573 18.0402,-21.01768 14.11646,23.83102 24.14072,-13.58005 5.11444,27.22196 27.32951,-4.50446 -4.50447,27.32951 27.22196,5.11443 -13.58005,24.14072 23.83103,14.11646 -21.01769,18.0402 17.56573,21.41582 -25.92027,9.76378 9.18174,26.13212 -27.6965,0.30968 -0.30968,27.69649 -26.13212,-9.18174 -9.76378,25.92027 -21.41582,-17.56572 -18.0402,21.01768 -14.11646,-23.83103 -24.14072,13.58006 -5.11443,-27.22196 z"
         id="path3139"
         style="color:#000000;fill:url(#linearGradient3972);fill-opacity:1;fill-rule:nonzero;stroke:none;stroke-width:2;marker:none;visibility:visible;display:inline;overflow:visible;enable-background:accumulate" />
      <path
         d="m 387.33888,571.10423 -17.94866,21.10447 -21.49894,-17.55418 -9.66467,25.83818 -26.23265,-9.27019 0,6.31162 26.23265,9.27018 9.66467,-25.83818 21.49894,17.55419 17.94866,-21.10447 14.20114,23.8658 24.06304,-13.60942 5.12818,27.21884 26.4299,-4.33923 0.98619,-6.50886 -27.41609,4.53648 -5.12818,-27.21885 -24.06304,13.60942 -14.20114,-23.8658 z m -75.54216,47.92884 -27.81056,0.19724 2.16962,6.31162 25.64094,-0.19724 0,-6.31162 z m 142.80032,12.62323 -0.98619,6.11438 24.06304,4.53648 3.15581,-5.7199 -26.23266,-4.93096 z m -163.31308,14.59562 -23.8658,8.87571 3.94476,4.93095 21.89342,-8.284 -1.97238,-5.52266 z m 178.69765,15.97628 -2.76133,4.73371 19.52656,11.63704 4.33924,-3.74752 -21.10447,-12.62323 z m -187.96783,16.96247 -18.1459,15.38456 4.33924,2.5641 16.76523,-14.20114 -2.95857,-3.74752 z m 190.9264,17.35694 -2.95857,2.5641 13.60942,16.56799 3.94476,-1.38067 -14.59561,-17.75142 z m -187.96783,16.96247 -10.84809,19.32933 3.15581,0.59171 10.45361,-18.34313 -2.76133,-1.57791 z m 178.69764,15.97628 -1.97238,0.78895 7.10057,19.92104 2.16962,0 -7.29781,-20.70999 z m -163.31308,14.59562 -3.55028,21.3017 0.98619,-0.19724 3.55028,-20.90723 -0.98619,-0.19723 z"
         inkscape:connector-curvature="0"
         id="path3933"
         style="opacity:0.6;color:#000000;fill:url(#linearGradient3964);fill-opacity:1;fill-rule:nonzero;stroke:none;stroke-width:2;marker:none;visibility:visible;display:inline;overflow:visible;enable-background:accumulate" />
      <g
         transform="translate(-2.1428571,0)"
         id="g4010">
        <path
           style="opacity:0.1;fill:#000000;fill-opacity:1;stroke:none;display:inline"
           id="path3894"
           inkscape:connector-curvature="0"
           d="m 446.85059,686.60563 c -20.48846,3.66242 -40.98537,7.36111 -61.47307,11.05865 -4.14704,0.94394 -5.33203,6.90642 -1.90929,9.39329 3.64504,3.64504 7.29007,7.29007 10.93511,10.9351 -11.87208,8.07311 -29.24271,7.18379 -39.56907,-3.07266 -4.21266,-3.78299 -6.73945,-8.94316 -8.81252,-14.0845 -2.37061,-3.55368 -6.78054,-1.79752 -10.06805,-0.89515 -7.06309,1.9694 -14.25566,3.57925 -21.23767,5.77397 -4.47088,2.06164 -2.80282,7.64805 -1.10415,11.0455 8.63935,22.92663 30.68563,40.02752 55.08233,42.49735 18.41318,2.16049 37.57482,-3.46347 51.8921,-15.24416 4.37001,4.21187 8.46436,8.78356 13.01017,12.76624 3.3756,2.07327 8.00173,-0.68012 8.05851,-4.59567 3.60183,-20.01781 7.42118,-40.02298 10.88755,-60.04864 0.19412,-3.07852 -2.58066,-5.86584 -5.69195,-5.52932 z" />
        <path
           inkscape:connector-curvature="0"
           style="opacity:0.15;fill:#000000;fill-opacity:1;stroke:none;display:inline"
           id="path3890"
           d="m 446.76928,689.77687 -60.41599,10.89602 a 2.2089118,2.2089118 0 0 0 -1.13839,3.74042 l 14.31119,14.31119 c -13.91024,11.43409 -34.40837,10.83625 -47.40582,-2.11415 -3.93196,-3.91773 -6.68725,-8.51842 -8.3753,-13.41675 a 2.2089118,2.2089118 0 0 0 -2.68334,-1.38232 l -24.55671,6.50508 a 2.2089118,2.2089118 0 0 0 -1.54496,2.76466 c 3.00582,9.83 8.37869,19.14033 16.18141,26.9148 24.5224,24.4336 64.06487,24.73213 89.68888,1.95152 l 13.82331,13.742 a 2.2089118,2.2089118 0 0 0 3.74042,-1.13839 l 10.97734,-60.17205 a 2.2089118,2.2089118 0 0 0 -2.60204,-2.60203 z" />
        <path
           style="opacity:0.3;fill:#000000;fill-opacity:1;stroke:none;display:inline"
           id="path3884"
           inkscape:connector-curvature="0"
           d="m 436.17297,752.13426 10.99078,-60.18673 -60.40543,10.95101 16.11987,16.06147 c -14.73803,13.79354 -37.90923,13.50791 -52.28691,-0.81767 -4.17007,-4.15497 -7.17323,-9.04147 -8.96848,-14.25092 l -24.56078,6.54141 c 2.90569,9.50252 8.11614,18.48293 15.6509,25.9904 24.18848,24.10087 63.57965,24.03924 88.27808,0.58407 l 15.18197,15.12698 z" />
        <path
           style="fill:#ffffff;fill-opacity:1;stroke:none;display:inline"
           id="Symbol"
           inkscape:connector-curvature="0"
           d="m 436.17297,749.53222 10.99078,-60.18672 -60.40543,10.951 16.11987,16.06148 c -14.73803,13.79354 -37.90923,13.50791 -52.28691,-0.81767 -4.17007,-4.15498 -7.17323,-9.04147 -8.96848,-14.25093 l -24.56078,6.54141 c 2.90569,9.50253 8.11614,18.48293 15.6509,25.9904 24.18848,24.10088 63.57965,24.03924 88.27808,0.58408 l 15.18197,15.12698 z" />
        <path
           style="opacity:0.75;fill:#ffffff;fill-opacity:1;stroke:none;display:inline"
           id="path3866"
           inkscape:connector-curvature="0"
           d="m 447.17585,689.37029 -60.41599,10.89602 2.19546,2.19547 57.73265,-10.40813 0.48788,-2.68336 z m -105.54503,11.9531 -24.55671,6.50509 c 0.23965,0.78381 0.54209,1.58191 0.81314,2.35809 l 23.74357,-6.26114 c 1.79525,5.20945 4.77442,10.0749 8.94449,14.22987 14.37765,14.32558 37.54661,14.60665 52.28464,0.81314 l -1.38234,-1.38233 c -14.77174,12.53074 -36.96655,11.85244 -50.9023,-2.03284 -4.17007,-4.15498 -7.14924,-9.02042 -8.94449,-14.22988 z" />
        <path
           style="opacity:0.15;fill:#000000;fill-opacity:1;stroke:none;display:inline"
           id="path3875"
           inkscape:connector-curvature="0"
           d="m 447.17585,689.37029 -0.48788,0.0812 -10.48945,57.48871 -15.20565,-15.12433 c -24.69841,23.45515 -64.11806,23.53168 -88.30655,-0.5692 -6.91326,-6.88821 -11.78409,-15.02852 -14.79907,-23.66226 l -0.81314,0.24382 c 2.9057,9.50252 8.07745,18.51288 15.61221,26.02034 24.18849,24.10089 63.60814,24.02436 88.30655,0.5692 l 15.20565,15.12433 10.97733,-60.17205 z m -58.22053,10.48946 -2.19546,0.40656 14.71775,14.71777 c 0.4684,-0.39736 0.92935,-0.79576 1.38234,-1.21971 l -13.90463,-13.90462 z" />
        <path
           style="opacity:0.1;fill:#000000;fill-opacity:1;stroke:none;display:inline"
           id="path3894-6"
           inkscape:connector-curvature="0"
           d="m 312.31846,692.15667 c 20.46759,-3.77733 40.94342,-7.59096 61.41005,-11.4034 4.14168,-0.9672 5.2932,-6.93623 1.85656,-9.40386 -3.66544,-3.62453 -7.33086,-7.24905 -10.99629,-10.87357 11.82659,-8.1396 29.20194,-7.34775 39.58568,2.85059 4.23382,3.7593 6.78953,8.90521 8.89141,14.03483 2.39051,3.54033 6.79052,1.75945 10.07292,0.83865 7.05192,-2.009 14.23535,-3.65918 21.20493,-5.89304 4.45925,-2.0867 2.75987,-7.66366 1.04216,-11.05153 -8.76785,-22.87779 -30.90974,-39.85471 -55.31991,-42.18761 -18.42502,-2.05714 -37.5548,3.67424 -51.80575,15.53508 -4.39358,-4.18728 -8.51351,-8.73593 -13.0816,-12.69304 -3.38718,-2.05429 -7.99779,0.72501 -8.03259,4.64082 -3.48946,20.0377 -7.1965,40.06399 -10.55045,60.10878 -0.17685,3.07956 2.61353,5.85127 5.72288,5.4973 z" />
        <path
           inkscape:connector-curvature="0"
           style="opacity:0.15;fill:#000000;fill-opacity:1;stroke:none;display:inline"
           id="path3890-2"
           d="m 312.38198,688.98502 60.3539,-11.23484 a 2.2089118,2.2089118 0 0 0 1.11738,-3.74675 L 359.462,659.77277 c 13.84586,-11.51196 34.34703,-11.02915 47.41694,1.84812 3.95388,3.89561 6.73494,8.48077 8.45044,13.36955 a 2.2089118,2.2089118 0 0 0 2.69106,1.36724 l 24.51982,-6.64277 a 2.2089118,2.2089118 0 0 0 1.52943,-2.77328 c -3.06093,-9.81298 -8.48596,-19.09302 -16.33218,-26.82358 -24.65911,-24.29562 -64.20263,-24.37228 -89.69842,-1.44825 L 324.1389,625.00558 a 2.2089118,2.2089118 0 0 0 -3.73398,1.15936 l -10.63954,60.23269 a 2.2089118,2.2089118 0 0 0 2.6166,2.58739 z" />
        <path
           style="opacity:0.3;fill:#000000;fill-opacity:1;stroke:none;display:inline"
           id="path3884-3"
           inkscape:connector-curvature="0"
           d="m 322.62824,626.56916 -10.65291,60.24745 60.34304,-11.28977 -16.20974,-15.97077 c 14.6604,-13.87602 37.83284,-13.72041 52.29068,0.52428 4.19331,4.1315 7.22384,9.00108 9.0483,14.20037 l 24.52369,-6.67912 c -2.95897,-9.48606 -8.21972,-18.4371 -15.79649,-25.90217 -24.32333,-23.96477 -63.71353,-23.68212 -88.27997,-0.0887 l -15.2666,-15.04155 z" />
        <path
           style="fill:#ffffff;fill-opacity:1;stroke:none;display:inline"
           id="Symbol-8"
           inkscape:connector-curvature="0"
           d="m 322.64284,629.17116 -10.65291,60.24744 60.34304,-11.28976 -16.20974,-15.97078 c 14.6604,-13.87602 37.83284,-13.72041 52.29068,0.52428 4.19331,4.13151 7.22384,9.00107 9.0483,14.20038 l 24.52369,-6.67912 c -2.95897,-9.48607 -8.21972,-18.4371 -15.79649,-25.90217 -24.32333,-23.96478 -63.71353,-23.68212 -88.27997,-0.0888 l -15.2666,-15.04155 z" />
        <path
           style="opacity:0.75;fill:#ffffff;fill-opacity:1;stroke:none;display:inline"
           id="path3866-6"
           inkscape:connector-curvature="0"
           d="m 311.97769,689.39388 60.35391,-11.23484 -2.20775,-2.18312 -57.67334,10.7319 -0.47282,2.68606 z m 105.47631,-12.54513 24.51982,-6.64277 c -0.24405,-0.78245 -0.55096,-1.57884 -0.82636,-2.35349 l -23.70806,6.39427 c -1.82446,-5.1993 -4.83088,-10.04796 -9.0242,-14.17946 -14.4578,-14.24469 -37.62797,-14.39575 -52.28838,-0.51976 l 1.39008,1.37455 c 14.7012,-12.61343 36.89946,-12.05967 50.9129,1.7472 4.19332,4.13151 7.19974,8.98016 9.0242,14.17946 z" />
        <path
           style="opacity:0.15;fill:#000000;fill-opacity:1;stroke:none;display:inline"
           id="path3875-2"
           inkscape:connector-curvature="0"
           d="m 311.97769,689.39388 0.48742,-0.0839 10.16672,-57.54666 15.29027,15.03877 c 24.56642,-23.59336 63.98502,-23.89107 88.30836,0.0737 6.9518,6.84931 11.86822,14.96216 14.9316,23.57885 l 0.81176,-0.24838 c -2.95897,-9.48607 -8.1812,-18.46727 -15.75796,-25.93233 -24.32334,-23.96479 -63.74194,-23.66708 -88.30836,-0.0737 l -15.29027,-15.03877 -10.63953,60.2327 z m 58.16076,-10.81597 2.19315,-0.41887 -14.8001,-14.63496 c -0.46617,0.39998 -0.92487,0.80096 -1.37548,1.22744 l 13.98243,13.82639 z" />
      </g>
    </g>
  </g>
</svg>
