<?xml version="1.0" encoding="UTF-8" standalone="no"?>
<!-- Created with Inkscape (http://www.inkscape.org/) -->

<svg
   xmlns:dc="http://purl.org/dc/elements/1.1/"
   xmlns:cc="http://creativecommons.org/ns#"
   xmlns:rdf="http://www.w3.org/1999/02/22-rdf-syntax-ns#"
   xmlns:svg="http://www.w3.org/2000/svg"
   xmlns="http://www.w3.org/2000/svg"
   xmlns:xlink="http://www.w3.org/1999/xlink"
   xmlns:sodipodi="http://sodipodi.sourceforge.net/DTD/sodipodi-0.dtd"
   xmlns:inkscape="http://www.inkscape.org/namespaces/inkscape"
   width="1602.4293"
   height="903.57172"
   id="svg3882"
   version="1.1"
   inkscape:version="0.48.0 r9654"
   sodipodi:docname="New document 7">
  <defs
     id="defs3884">
    <linearGradient
       y2="-1685.7142"
       x2="-5639.5049"
       y1="-1501.4286"
       x1="-5886.6479"
       gradientTransform="matrix(1.1352411,0,0,1.1352411,6121.8671,2215.1504)"
       gradientUnits="userSpaceOnUse"
       id="linearGradient7362-4-1-2"
       xlink:href="#linearGradient3905-2-2-54-8-6-5-00-3-2-1-5-1"
       inkscape:collect="always" />
    <linearGradient
       id="linearGradient3905-2-2-54-8-6-5-00-3-2-1-5-1">
      <stop
         style="stop-color:#c01a06;stop-opacity:1;"
         offset="0"
         id="stop3907-2-3-4-2-2-4-4-2-7-7-3-9" />
      <stop
         style="stop-color:#eb1b1b;stop-opacity:1;"
         offset="1"
         id="stop3909-4-8-9-7-1-5-6-5-6-6-3-2" />
    </linearGradient>
    <linearGradient
       y2="6939.8623"
       x2="-6250"
       y1="7224.2373"
       x1="-6231.25"
       gradientTransform="matrix(1.2329227,0,0,1.2329227,1097.627,883.77621)"
       gradientUnits="userSpaceOnUse"
       id="linearGradient4695"
       xlink:href="#linearGradient3905-2-2-54-8-6-5-00-3-2-1-0-2-2"
       inkscape:collect="always" />
    <linearGradient
       id="linearGradient3905-2-2-54-8-6-5-00-3-2-1-0-2-2">
      <stop
         style="stop-color:#c01a06;stop-opacity:1;"
         offset="0"
         id="stop3907-2-3-4-2-2-4-4-2-7-7-8-8-8" />
      <stop
         style="stop-color:#eb1b1b;stop-opacity:1;"
         offset="1"
         id="stop3909-4-8-9-7-1-5-6-5-6-6-5-5-0" />
    </linearGradient>
    <linearGradient
       y2="6939.8623"
       x2="-6250"
       y1="7224.2373"
       x1="-6231.25"
       gradientTransform="matrix(1.2329227,0,0,1.2329227,1097.627,883.77621)"
       gradientUnits="userSpaceOnUse"
       id="linearGradient3863"
       xlink:href="#linearGradient3905-2-2-54-8-6-5-00-3-2-1-0-2-2"
       inkscape:collect="always" />
    <linearGradient
       id="linearGradient3865">
      <stop
         style="stop-color:#c01a06;stop-opacity:1;"
         offset="0"
         id="stop3867" />
      <stop
         style="stop-color:#eb1b1b;stop-opacity:1;"
         offset="1"
         id="stop3869" />
    </linearGradient>
    <linearGradient
       y2="6939.8623"
       x2="-6250"
       y1="7224.2373"
       x1="-6231.25"
       gradientTransform="matrix(1.2329227,0,0,1.2329227,8075.4837,-7942.7879)"
       gradientUnits="userSpaceOnUse"
       id="linearGradient3880"
       xlink:href="#linearGradient3905-2-2-54-8-6-5-00-3-2-1-0-2-2"
       inkscape:collect="always" />
  </defs>
  <sodipodi:namedview
     id="base"
     pagecolor="#ffffff"
     bordercolor="#666666"
     borderopacity="1.0"
     inkscape:pageopacity="0.0"
     inkscape:pageshadow="2"
     inkscape:zoom="0.35"
     inkscape:cx="801.21463"
     inkscape:cy="451.79103"
     inkscape:document-units="px"
     inkscape:current-layer="layer1"
     showgrid="false"
     fit-margin-top="0"
     fit-margin-left="0"
     fit-margin-right="0"
     fit-margin-bottom="0"
     inkscape:window-width="462"
     inkscape:window-height="452"
     inkscape:window-x="488"
     inkscape:window-y="211"
     inkscape:window-maximized="0" />
  <metadata
     id="metadata3887">
    <rdf:RDF>
      <cc:Work
         rdf:about="">
        <dc:format>image/svg+xml</dc:format>
        <dc:type
           rdf:resource="http://purl.org/dc/dcmitype/StillImage" />
        <dc:title></dc:title>
      </cc:Work>
    </rdf:RDF>
  </metadata>
  <g
     inkscape:label="Layer 1"
     inkscape:groupmode="layer"
     id="layer1"
     transform="translate(426.21463,-80.58152)">
    <text
       xml:space="preserve"
       style="font-size:1985.85437012px;font-style:normal;font-weight:normal;text-align:center;line-height:125%;letter-spacing:0px;word-spacing:0px;text-anchor:middle;fill:url(#linearGradient3880);fill-opacity:1;stroke:none;font-family:Bitstream Vera Sans"
       x="371.05936"
       y="890.32159"
       id="text6621-6-8-3"
       sodipodi:linespacing="125%"><tspan
         sodipodi:role="line"
         id="tspan6623-9-0-4"
         x="371.05933"
         y="890.32159"
         style="font-size:496.46359253px;font-style:normal;font-variant:normal;font-weight:500;font-stretch:normal;text-align:center;line-height:125%;writing-mode:lr-tb;text-anchor:middle;fill:url(#linearGradient3880);fill-opacity:1;font-family:Delicious Heavy;-inkscape-font-specification:'Delicious Heavy, Medium'">Syncany</tspan></text>
    <rect
       style="fill:url(#linearGradient7362-4-1-2);fill-opacity:1;fill-rule:nonzero;stroke:#ffffff;stroke-width:2;stroke-miterlimit:4;stroke-opacity:1;stroke-dasharray:none"
       id="rect4982-3-3-7-2-4-3-4-8-3"
       width="421.92282"
       height="417.76599"
       x="-592.50934"
       y="121.47082"
       rx="25.690662"
       ry="25.690662"
       transform="matrix(-0.16789514,-0.98580486,0.98580486,-0.16789514,0,0)" />
    <path
       style="font-size:643.40087891px;font-style:normal;font-variant:normal;font-weight:500;font-stretch:normal;text-align:center;line-height:125%;letter-spacing:0px;word-spacing:0px;writing-mode:lr-tb;text-anchor:middle;fill:#ffffff;fill-opacity:1;stroke:none;font-family:Delicious Heavy;-inkscape-font-specification:'Delicious Heavy, Medium'"
       d="m 217.05201,236.15873 c -27.526,-0.7001 -41.5875,3.0374 -53.5436,7.6976 l 13.875,78.5625 c 1.9192,-1.6487 4.1905,-3.2564 6.9062,-4.8437 19.4019,-11.3393 49.2979,-7.6703 78.625,-2.25 l 21.0313,-68.0938 c -37.666,-9.334 -39.368,-10.3724 -66.8939,-11.0726 z m 59.1752,141.1038 c -2.4884,-0.011 -4.7188,0.06 -6.5313,0.1563 -26.1999,0.6689 -45.2071,3.6388 -69.9375,2.2813 -5.3808,-0.065 -9.0706,-0.8888 -11.0312,-0.8438 -0.361,-0.042 -0.9496,-0.087 -1.4063,-0.125 l 13.3242,78.3438 c 5.3116,-0.6953 11.621,-1.3837 18.0195,-1.9063 18.9933,-1.7459 31.919,-2.716 38.7813,-2.875 18.8093,-1.0884 30.3362,2.9197 34.625,11.9687 7.3519,15.5128 4.4668,38.5893 -16.875,51.0626 -12.47,7.2881 -34.2035,10.4103 -63.1641,9.2227 l 7.6601,39.2226 139.0938,-22.9063 c 20.6727,-31.8782 28.9549,-61.4559 15.1289,-97.3516 -5.3508,-13.3805 -12.3397,-24.4557 -20.9374,-33.1874 -8.21,-8.9584 -16.058,-15.6312 -23.5938,-20.0313 -7.5362,-4.3996 -18.4348,-8.5114 -28.1562,-10.6563 -7.745,-1.7088 -17.5351,-2.3412 -25,-2.375 z"
       id="path4944-7-9-2-8-5-4-5-2-2-6-6"
       inkscape:connector-curvature="0"
       sodipodi:nodetypes="zccccczcccccccccsccccccsc" />
    <g
       style="font-size:387.2449646px;font-style:normal;font-weight:normal;text-align:center;line-height:125%;letter-spacing:0px;word-spacing:0px;text-anchor:middle;fill:#ffffff;fill-opacity:1;stroke:none;font-family:Bitstream Vera Sans"
       id="text3802-9-6-6-5-7-7-9-0-3-7-2-9-4-3-9-6-6-8-8-2-1-1-5-1-9-7"
       transform="matrix(-1.4045478,0.63060015,-0.63060015,-1.4045478,37.303114,1027.0797)">
      <path
         d="m -500.89541,376.70476 c 4.99999,-23.26016 -15.82636,-2.37207 -7.76349,-23.67111 17.65832,-15.17971 44.30484,-32.45817 70.22352,-33.54553 23.70371,-0.99443 50.14691,16.82765 66.56623,25.19185 7.8395,8.66613 12.91018,9.99939 -1.91915,34.29595 -11.829,-8.19938 -32.85152,-23.94046 -51.71178,-23.10037 -18.23962,0.81245 -45.8685,13.64076 -47.82577,26.69811"
         style="font-size:464.69390869px;font-variant:normal;font-weight:500;font-stretch:normal;writing-mode:lr-tb;fill:#ffffff;font-family:Delicious Heavy;-inkscape-font-specification:'Delicious Heavy, Medium'"
         id="path4120-3-2-7-3-4-6-8-2-7-2-2-4-6-7-8-0-9-8-2-7-9-32-8-0-33-3"
         inkscape:connector-curvature="0"
         sodipodi:nodetypes="ccaccac" />
    </g>
    <path
       style="fill:#ffffff;fill-opacity:1;fill-rule:nonzero;stroke:none"
       d="m 310.04321,254.72763 c 65.075,17.6676 96.6529,27.0917 147.6223,64.5119 23.9579,18.5674 63.1506,43.1143 63.1506,43.1143 2.0909,9.7346 -75.0541,8.7837 -57.6959,39.7266 0,0 -33.0406,-25.6088 -51.1297,-35.9438 -20.3425,-11.6215 -41.9042,-21.2757 -64.0204,-29.0061 -19.4865,-6.8112 -60.0468,-15.1477 -60.0468,-15.1477 z"
       id="rect4365-7-1-2-0-5-3-7-9-9-2-9-3-4-2-0-3-2-7-7"
       inkscape:connector-curvature="0"
       sodipodi:nodetypes="ccccaacc" />
    <path
       style="fill:#ffffff;fill-opacity:1;fill-rule:nonzero;stroke:none"
       d="m 518.99321,291.55643 20.1417,147.4914 c 0.1056,0.7201 -1.0225,1.5498 -2.3069,1.3786 l -138.46,-18.9721 c -1.2874,-0.1764 -3.0078,-0.8888 -2.3782,-1.2518 l 73.6856,-42.5089 c 45.7736,-26.4065 7.0914,-5.9029 7.0914,-5.9029 l 39.8515,-81.4804 c 1.2201,-0.5196 1.7467,0.4032 2.3779,1.2509 z"
       id="rect4978-4-6-4-0-4-2-9-3-8-9-6-1-6-2-3-1-7-5-1-2-2-4-9-4-4-8"
       inkscape:connector-curvature="0"
       sodipodi:nodetypes="csssssccc" />
    <path
       sodipodi:nodetypes="csssssccc"
       inkscape:connector-curvature="0"
       id="path3288-3-6-6-9-2-0-2-6-4-1-1-3-37-0"
       d="m 399.92591,189.01833 134.8677,-63.00971 c 0.6566,-0.3132 1.8138,0.5125 1.9971,1.7984 l 20.5291,143.93561 c 0.1851,1.2861 0.011,3.1709 -0.4892,2.6427 l -59.3797,-62.7807 c -36.3121,-38.39211 -8.3768,-6.0714 -8.3768,-6.0714 l -89.6371,-13.8728 c -0.8581,-1.0107 -0.1326,-1.7879 0.4889,-2.6421 z"
       style="fill:#ffffff;fill-opacity:1;fill-rule:nonzero;stroke:none" />
  </g>
</svg>
